<?xml version="1.0" encoding="utf-8"?>
<!-- Generator: Adobe Illustrator 26.3.1, SVG Export Plug-In . SVG Version: 6.00 Build 0)  -->
<svg version="1.1" id="Layer_1" xmlns="http://www.w3.org/2000/svg" xmlns:xlink="http://www.w3.org/1999/xlink" x="0px" y="0px"
	 viewBox="0 0 121 125.96" style="enable-background:new 0 0 121 125.96;" xml:space="preserve">
<style type="text/css">
	.st0{fill:#FFFFFF;}
</style>
<circle class="st0" cx="51.92" cy="105.09" r="8.27"/>
<circle class="st0" cx="91.96" cy="105.12" r="8.27"/>
<path class="st0" d="M108.42,35.65H33.76l-3.43-11.18c-2.77-11.9-9.02-11.9-9.02-11.9H9.42c-0.01,0-0.02,0.01-0.03,0.01H7.24
	c-1.89,0-3.42,1.53-3.42,3.42s1.53,3.42,3.42,3.42h2.18h1.05h7.24c3.79,0,4.33,3.25,4.33,3.25l15.87,54.82
	c2.89,9.56,11.72,10.28,11.72,10.28h41.98c11.26,0,13.02-8.3,13.02-8.3l10.1-35.89C117.26,35.29,108.42,35.65,108.42,35.65z"/>
</svg>
